<svg xmlns="http://www.w3.org/2000/svg" xmlns:xlink="http://www.w3.org/1999/xlink" width="391" height="286.977" viewBox="0 0 391 286.977"><defs><style>.a{fill:url(#a);}.b{fill:#fff;}.c{fill:#ffd560;}.d,.g,.m,.q{fill:none;stroke-miterlimit:10;}.d{stroke:#845a45;stroke-width:1.359px;}.e{fill:#b78e72;}.f{fill:#4A26F4;}.g{stroke:#b78e72;stroke-width:2.054px;}.h{fill:#ffb8b3;}.i{fill:#603826;}.j{fill:#57cbea;}.k{fill:#7ee1fc;}.l{fill:#232323;}.m,.q{stroke:#232323;}.m{stroke-width:0.514px;}.n{fill:#ffa3a1;}.o{fill:#999;}.p{fill:#2d2d2d;}.q{stroke-width:0.37px;}</style><linearGradient id="a" x2="0.961" y2="0.982" gradientUnits="objectBoundingBox"><stop offset="0" stop-color="#ffc400"/><stop offset="1" stop-color="#fb0"/></linearGradient></defs><path class="a" d="M0,0H391a0,0,0,0,1,0,0V225a35,35,0,0,1-35,35H35A35,35,0,0,1,0,225V0A0,0,0,0,1,0,0Z"/><g transform="translate(10.253 -128.177)"><path class="b" d="M310.661,236.773c-.568,1.169-.523,1.618,1.237,1.523s1.9-.286,1.57.381-.333.666-1.047.713-2.95-.19-3.664,1.666-5.376,13.988-5.662,14.7-3.045-.952-2.522-2.237,3.426-9.231,4.235-10.943.333-1.9-1.76-1.618-3.9.619-4.805,3.569-2.332,7.089-2.522,7.946-3.283.1-2.76-1.951,2.569-7.423,2.95-8.422-.762-.666-1.095-.571-.523-1.237.19-1.427,1.761-.381,2.188-1.285,4.663-10.991,5.139-12.466.857-1.57,2.141-1,1.094.666.618,1.808-4.33,10.039-4.663,10.944-.285,1.332,1.189,1.047a14.169,14.169,0,0,1,3.474-.286c.856.048,1.427-.333,2.046-1.76s4.235-10.04,4.615-10.848,3.569.714,3,2.141S311.517,235.012,310.661,236.773Z" transform="translate(0 -18.163)"/><path class="b" d="M385.987,224.951a162.678,162.678,0,0,0,9.218-13.669c2.521-4.758,1.475-6.423.428-7.47s-2.617-1.047-4.378,1.57-5.948,12.276-6.613,14.036-.381,1.522-.048,1.047,3.045-6.8,3.236-7.185.333-.238.333.048-2.95,6.994-4.615,10.8a26.714,26.714,0,0,0-1.291,4.032c-1.733,2.431-3.266,4.477-4.229,5.58-3.283,3.759-4.805,4.092-4.758.618.029-2.1,1.017-6.609,2.224-11.053a60.511,60.511,0,0,0,7.292-10.644c5.139-9.944,3.711-10.658,2.046-11.372s-4.616,1.951-7.137,7.327-4.139,9.8-3.9,9.754,3.569-7.66,4.52-9.516.856-.571.333.476a151.583,151.583,0,0,0-6.4,15.986c-3.645,3.873-7.407,7.26-8.443,7.615-1.808.619-2-.951-1.665-4.091a9.3,9.3,0,0,1,.339-1.611,11.036,11.036,0,0,0,4.228-2.1c3.093-2.76,3.474-6.186.618-6.661-2.561-.427-6.421,3.321-7.533,8.8-.187.038-.372.071-.556.1-3.426.476-3.275.878-2.951.856a32.376,32.376,0,0,0,3.4-.371c-.073.447-.13.9-.164,1.37-.476,6.519,4.187,5.614,6.042,4.187a66.768,66.768,0,0,0,5.955-5.65,23.159,23.159,0,0,0-.958,5.364c-.1,6.519,3.568,7.28,7.422,2.475.91-1.135,2.213-2.828,3.7-4.81-.734,3.863-1.058,8.054-.323,10.091,1.237,3.426,5.091.809,6.519-1.57a30.39,30.39,0,0,0,2.664-5.709c.238-.809.047-1-.143-.476s-2.569,5.662-4.473,6.946-2.95.381-2.426-4.139A79.6,79.6,0,0,1,385.987,224.951Zm-19.474-4.866c1.047-.476,1.951.618,1.094,2.332-.565,1.129-2.535,2.713-4.795,3.8C363.845,223.422,365.727,220.442,366.513,220.085Zm11.419-4.711a92.27,92.27,0,0,1,5.282-11.9c.476-.761,1.57-.285,1.522.761s-2.411,7.1-5.71,12.656a34.791,34.791,0,0,1-2.838,3.939C376.777,218.82,377.383,216.916,377.932,215.375Zm11.752-1.475c2.9-7.327,4.473-9.04,5.043-8.755s.285,2.807-1.618,6.471c-.841,1.619-3.242,5.392-5.943,9.423C387.956,218.556,388.813,216.1,389.685,213.9Z" transform="translate(-48.143 0)"/><path class="b" d="M500.566,297.951a27.981,27.981,0,0,1-2.841.255c1.976-5.164-.774-8.224-2.631-8.059-1.564.139-3.355,2.158-3.8,4.5a8.817,8.817,0,0,0-5.621,6.447c-1.19,6.613,6.709,6.281,10.8-.381.272-.444.51-.876.719-1.3a17.567,17.567,0,0,0,3.182-.511C501.708,298.522,502.488,297.689,500.566,297.951Zm-7.232-4.616c.951-2.236,3.949-3.33,3.235,1.142a17.2,17.2,0,0,1-1.04,3.639c-2.784-.389-3.061-1.847-2.725-3.271,1.476-.648,2.714-.652,2.623-.987-.048-.177-1.04-.162-2.377.187C493.14,293.8,493.238,293.56,493.334,293.336Zm-3.854,11.182c-3.068-.212-1.38-5.186.809-7.8a6.639,6.639,0,0,1,.9-.891,5.045,5.045,0,0,0,.239,1.462c.448,1.383,1.9,1.948,3.529,2.112C493.541,302.292,491.46,304.654,489.479,304.517Z" transform="translate(-146.7 -67.745)"/></g><g transform="translate(-373.293 -175.788)"><g transform="translate(732.126 330.43)"><circle class="c" cx="6.794" cy="6.794" r="6.794" transform="translate(4.894)"/><circle class="c" cx="9.011" cy="9.011" r="9.011" transform="translate(2.677 9.129)"/><circle class="c" cx="11.688" cy="11.688" r="11.688" transform="translate(0 21.074)"/><line class="d" y2="44.324" transform="translate(11.688 6.794)"/><line class="d" y1="3.889" x2="4.538" transform="translate(11.786 13.983)"/><line class="d" x1="4.167" y1="3.982" transform="translate(7.249 18.243)"/><line class="d" y1="5.093" x2="6.297" transform="translate(11.879 26.763)"/><line class="d" x1="6.019" y1="5.371" transform="translate(5.767 33.986)"/></g><g transform="translate(628.469 305.788)"><g transform="translate(60.347 77.856)"><circle class="e" cx="2.897" cy="2.897" r="2.897" transform="translate(57.45 70.484)"/><circle class="e" cx="2.897" cy="2.897" r="2.897" transform="translate(39.587 70.243)"/><path class="c" d="M704.265,416.027l6.759-4.828h27.518l26.794,45.622-7.724,4.586Z" transform="translate(-695.093 -389.957)"/><path class="f" d="M704.265,416.334h26.07l27.277,45.38H730.818Z" transform="translate(-695.093 -390.265)"/><path class="g" d="M723.716,416.122,705.853,388.6H694.508l16.414,27.518" transform="translate(-694.508 -388.604)"/></g><path class="h" d="M696.8,382.241c-1.247.927-1.49,4.5.268,5.1,1.338.457,1.921-.771,2.846-1.354.023,1.271.543,2.865,1.845,3.375,2.01.788,2.957-1.282,3.277-2.882a7.005,7.005,0,0,0-2.926-6.778L695,367l-2.509,12.543,4.312,2.7" transform="translate(-634.04 -309.454)"/><g transform="translate(0 3.842)"><path class="i" d="M677.28,313.685c1.9-4.028,8.735-4.1,12.35-3.594,7.458,1.035,12.6,9.088,17.335,14.218,4.915,5.328,3.213,13.553,9.026,18.369,2.706,2.242,5.831,3.252,8.7,5.119,2.658,1.726,4.216,3.794,3.325,7-.931,3.351-4.55,4.7-6.925,6.906-2.587,2.4-5.619,4.287-9.234,4.419-3.276.119-7.732.353-10.8-1.009-2.417-1.073-4.6-4.184-6.023-6.319-1.2-1.8-1.7-3.764-2.6-5.694-.88-1.879-2.165-3.548-3.032-5.433a31.147,31.147,0,0,1-2.513-7.1c-.4-2.262-.186-4.649-.642-6.865a49.791,49.791,0,0,0-1.881-6.924,43.9,43.9,0,0,0-2.619-5.527c-.693-1.29-1.879-2.549-2.184-3.988" transform="translate(-633.13 -309.875)"/><path class="h" d="M683.138,418.138l23.116,44.541,7.323-2.461-16.749-47.7Z" transform="translate(-633.48 -316.022)"/><path class="f" d="M714.57,462.058s8.962,6.924-6.752,9.856c0,0-11.009,2.143,1.2-7.275Z" transform="translate(-634.686 -318.989)"/><path class="h" d="M654.511,409.645l-16.724,47.314,6.8,3.665L667.971,415.8Z" transform="translate(-630.764 -315.85)"/><path class="f" d="M644.818,462.706s1.068,11.274-11.81,1.8c0,0-9.087-6.572,6.132-4.091Z" transform="translate(-630.317 -318.857)"/><path class="j" d="M693.07,385.046A104.28,104.28,0,0,0,709.5,401.94s-30.451,32.243-65.625,3.583c0,0,14.89-17.052,15.866-25.031Z" transform="translate(-631.129 -314.104)"/><path class="k" d="M694.072,382.074c-.155,2.287,1.476-9.26,2.95-25.781.643-7.205-1.38-11.683-5.552-17.842-2.835-4.185-11.333-8.1-16.5-7.534-2.865.312-8.689,3.362-10.854,5.181-5.673,4.765-2.449,36.882-3.508,42.328Z" transform="translate(-632.131 -311.132)"/><circle class="h" cx="9.119" cy="9.119" r="9.119" transform="translate(41.76 1.026)"/><path class="h" d="M685.537,330.058c-.352,2.683.185,6.949-3.013,7.491-5.292.895-4.64-5.374-3.079-9.268C681.217,327.481,683.793,328.124,685.537,330.058Z" transform="translate(-633.192 -310.957)"/><g transform="translate(44.87 9.136)"><circle class="l" cx="0.6" cy="0.6" r="0.6" transform="translate(0.253)"/><circle class="l" cx="0.6" cy="0.6" r="0.6" transform="translate(6.976 3.393)"/><path class="m" d="M682.738,321.435a12.94,12.94,0,0,1-2.192,1.861" transform="translate(-678.195 -319.703)"/><path class="m" d="M678.045,323.331c.659,2.044,3.158,3.885,5.332,3.051" transform="translate(-678.045 -319.817)"/></g><path class="b" d="M645.259,403.918s28.66,25.077,61.554-2.93l-1.059-1.059s-27.6,25.525-59.966,3.053Z" transform="translate(-631.212 -315.268)"/><path class="i" d="M677.844,312.828c2.012-2.9,6.282-2.632,9.2-1.633,1.865.638,3.907,1.234,5.233,2.893a14.065,14.065,0,0,1,3.052,6.281c.284,2.293-.105,4.722-1.919,6.284-1.523,1.311-1.6-.448-1.827-1.834-.174-1.045-.644-2.007-.8-3.048-.154-1.014-.266-2.041-.48-3.052a7.024,7.024,0,0,0-3.015-4.773c-2.788-1.82-7.192-.851-10.1.184" transform="translate(-633.124 -309.913)"/></g><g transform="translate(14.971 18.098)"><path class="n" d="M664.517,328.766s-2.18-4.982,6.851-3.425l2.491,8.1s15.57,19.307,16.193,26.469c0,0,1.246,8.72-10.276,4.048l-10.724-25.982-3.289-1.109Z" transform="translate(-647.322 -325.039)"/><rect class="o" width="10.159" height="9.595" transform="translate(21.73 12.932) rotate(-180)"/><rect class="o" width="14.11" height="13.264" transform="translate(14.11 14.626) rotate(-180)"/><circle class="p" cx="4.264" cy="4.264" r="4.264" transform="translate(2.581 3.614)"/></g><path class="c" d="M670.7,308.009s13.759,18.828,37.656,15.449l-9.173-7.966s-4.827-16.173-20.276-6.758C678.906,308.732,673.354,309.7,670.7,308.009Z" transform="translate(-632.735 -305.788)"/></g><g transform="translate(599.46 419.741)"><path class="e" d="M598.924,437.851c-1.526,1.689-1.334,4.7-1.339,6.893,0,1.232-.139,3.528.908,4.421a1.616,1.616,0,0,0,2.463-.609c.523-.993.131-2.266.548-3.311a3.127,3.127,0,0,1,2.366-1.848c1.3-.056,1.546,1.464,1.666,2.537.118,1.05-.054,3.277,1.016,3.948,1.351.849,2.272-.229,2.861-1.266.934-1.649.854-3.491.934-5.322,2.356-.129,4.879-.351,7.227-.243-.274.973-1.385,6.437.894,5.893,1.912-.456,1.981-4.324,2.953-5.645.1,1.213,0,4.132,1.486,4.7,1.531.58,2.246-1.369,2.587-2.478.593-1.93.9-4.079-.176-5.783a1.231,1.231,0,1,0-.088-2.425c1.669-.544-.435-3.179-1.425-1.919-.454-.863-.923-1.223-1.955-.914-.649.194-.582.652-1.029.873a3.03,3.03,0,0,1-1.3.055c-2.807-.167-5.7-.632-8.478-1.017" transform="translate(-595.587 -423.681)"/><path class="e" d="M601.265,425.656c-1.026-1.214-3.586-1.034-4.58.1-.728.833-1.2,3.18.223,3.684a1.783,1.783,0,0,0-1.418,1.567c-.193,1.205.561,1.4,1.578,1.4-2.506,2.014.672,6.61,3.442,4.4.2,2.082,4.745,3.235,5.108.767.8,1.478,2.783.141,3.6-.6a2.977,2.977,0,0,0,.658-3.039c1.579.708,3.218-1.139,3.04-2.65a3,3,0,0,0-3.031-2.546c1.13-.725,1.405-1.764.246-2.717-.718-.592-2.885-1.176-3.618-.436a1.51,1.51,0,0,0-.731-2.559,3.471,3.471,0,0,0-2.441.7,1.426,1.426,0,0,0-2.049-.37c-.671.459-.657,1.2-.644,1.933C600.646,425.23,600.647,425.168,601.265,425.656Z" transform="translate(-595.46 -423)"/><circle class="l" cx="0.432" cy="0.432" r="0.432" transform="translate(4.983 6.819)"/><circle class="l" cx="0.432" cy="0.432" r="0.432" transform="translate(9.404 6.937)"/><path class="l" d="M602.748,431.674c.007-.446,1.1-.519,1.272-.162.215.436-.042,1.284-.606,1.293C603.012,432.812,602.726,432.064,602.748,431.674Z" transform="translate(-595.896 -423.496)"/><path class="q" d="M601.392,432.932a1.31,1.31,0,0,0,.577.566,4.768,4.768,0,0,0,2.06.108,2.685,2.685,0,0,0,1.332-.529" transform="translate(-595.815 -423.595)"/></g></g></svg>